# xmcd
#
# Track frame offsets: 
#        150
#        15445
#        30267
#        43162
#        57900
#        72227
#        87022
#        102362
#        114830
#        128712
#        143637
#        158287
#        173537
#        187752
#        202155
#
# Disc length: 2868 seconds
#
# Revision: 7
# Processed by: cddbd v1.5.2PL0 Copyright (c) Steve Scherf et al.
# Submitted via: ExactAudioCopy v0.99pb4
#
DISCID=af0b320f
DTITLE=Billie Holiday - From the Original Decca Masters
DYEAR=1986
DGENRE=Jazz
TTITLE0=Ain't Nobody's Business If I Do
TTITLE1=Baby Get Lost
TTITLE2=Them There Eyes
TTITLE3=Keeps on Rainin'
TTITLE4=God Bless the Child
TTITLE5=Do Your Duty
TTITLE6=You're My Thrill
TTITLE7=Gimmie a Pigfoot (And a Bottle of Beer)
TTITLE8=Crazy He Calls Me
TTITLE9=Now or Never
TTITLE10=Please Tell Me How
TTITLE11=Lover Man (Where Can You Be?)
TTITLE12=Good Morning Heartache
TTITLE13=Solitude
TTITLE14=This Is Heaven to Me
EXTD=YEAR: 1986
EXTT0=
EXTT1=
EXTT2=
EXTT3=
EXTT4=
EXTT5=
EXTT6=
EXTT7=
EXTT8=
EXTT9=
EXTT10=
EXTT11=
EXTT12=
EXTT13=
EXTT14=
PLAYORDER=
